<svg width="27" height="27" viewBox="0 0 27 27" fill="none" xmlns="http://www.w3.org/2000/svg">
<g id="ai logo" clip-path="url(#clip0_26_57)">
<path id="Vector" d="M19.5351 22.8739C19.4287 22.8321 19.3132 22.808 19.1909 22.808C19.0687 22.808 18.9532 22.8321 18.8468 22.8739C18.7404 22.9178 18.643 22.9793 18.5638 23.0584L18.557 23.0628C18.5117 23.1068 18.4687 23.1573 18.4347 23.2122C18.4166 23.2408 18.3985 23.2715 18.3826 23.3045H16.954V22.1005C16.7343 22.1994 16.5057 22.2741 16.2725 22.3202C16.2317 22.329 16.1932 22.3356 16.1525 22.3422V23.6912C16.1525 23.7988 16.1977 23.8955 16.2702 23.9658C16.3426 24.0361 16.4423 24.0801 16.5532 24.0801H18.3962C18.4098 24.1064 18.4257 24.1328 18.4438 24.1592C18.4755 24.2053 18.5117 24.2492 18.5525 24.2888L18.5592 24.2954C18.6408 24.3745 18.7404 24.4404 18.8513 24.4843C18.9577 24.5261 19.0732 24.5502 19.1955 24.5502C19.3132 24.5502 19.4287 24.5283 19.5328 24.4865L19.5396 24.4843C19.6506 24.4404 19.7479 24.3745 19.8317 24.2954C19.9132 24.2163 19.9811 24.1196 20.0264 24.012C20.0694 23.9087 20.0943 23.7966 20.0943 23.678C20.0943 23.5616 20.0694 23.4495 20.0264 23.344C19.9811 23.2364 19.9132 23.1397 19.8317 23.0606C19.7457 22.9837 19.646 22.9178 19.5351 22.8739ZM13.003 14.6348H11.3275L11.0875 15.3994H9.57962L11.3796 10.7591H12.9962L14.7894 15.3994H13.243L13.003 14.6348ZM12.6906 13.6285L12.1675 11.9609L11.6423 13.6285H12.6906ZM15.206 10.7569H16.6891V15.3972H15.206V10.7569ZM14.0762 6.00024C13.8317 6.17162 13.6053 6.40231 13.4083 6.70111C13.3992 6.71649 13.3857 6.72968 13.3698 6.73847C13.3087 6.77582 13.2272 6.75824 13.1887 6.70111C12.9917 6.40231 12.7653 6.17162 12.5208 6.00024C12.2581 5.81569 11.9751 5.69924 11.683 5.64212H11.6785C11.3932 5.58499 11.1011 5.58499 10.8204 5.63333C10.5238 5.68386 10.2362 5.78932 9.97811 5.93433C9.72226 6.07934 9.49132 6.26609 9.29887 6.48141C9.11321 6.69013 8.96377 6.92961 8.86642 7.18667C8.85057 7.22622 8.83698 7.26796 8.8234 7.3119C8.81208 7.35145 8.79849 7.39539 8.78943 7.43934C8.77811 7.49646 8.7283 7.5382 8.66491 7.5404C8.36151 7.58434 8.06038 7.692 7.77962 7.85239C7.49434 8.01717 7.22943 8.24127 7.00075 8.50932C6.77434 8.77736 6.58415 9.09374 6.4483 9.44528C6.32151 9.77484 6.24453 10.1374 6.22868 10.5218C6.22642 10.5724 6.22642 10.6207 6.22642 10.6713C6.22642 10.7174 6.22868 10.7657 6.22868 10.8163C6.23094 10.858 6.21283 10.9019 6.17434 10.9283C5.98868 11.0579 5.82113 11.192 5.6717 11.3304C5.52 11.4732 5.38642 11.6204 5.27094 11.772C5.08302 12.0203 4.94491 12.2795 4.85208 12.541C4.75472 12.8134 4.70717 13.0924 4.70264 13.3671C4.70038 13.6307 4.7366 13.8922 4.81358 14.1448C4.89057 14.4019 5.0083 14.6524 5.16 14.8853C5.24604 15.0193 5.3434 15.1511 5.44981 15.2741C5.55849 15.3994 5.67623 15.518 5.80302 15.6301C5.83472 15.6586 5.85283 15.7048 5.84377 15.7487C5.80755 15.9157 5.78943 16.0805 5.78264 16.2431C5.77811 16.41 5.78717 16.5748 5.80981 16.7352C5.85283 17.0296 5.94113 17.3108 6.06566 17.5701C6.19698 17.8469 6.36906 18.0996 6.5683 18.3215C6.76076 18.539 6.98038 18.728 7.21585 18.884C7.45359 19.0422 7.70491 19.1652 7.96302 19.2509C8.07849 19.2882 8.19623 19.319 8.31623 19.341C8.42943 19.3629 8.54264 19.3761 8.65359 19.3805C8.71472 19.3783 8.77132 19.42 8.78491 19.4816C8.84377 19.743 8.95245 19.9891 9.10189 20.211C9.25811 20.4439 9.45509 20.6504 9.68151 20.8218C9.96679 21.0371 10.3019 21.1997 10.6551 21.2854C10.9879 21.3667 11.3389 21.382 11.683 21.3117C11.9909 21.2502 12.2898 21.1228 12.566 20.9207C12.8196 20.7339 13.0551 20.4834 13.2521 20.1583C13.2634 20.1385 13.2815 20.1231 13.3042 20.1121C13.3675 20.0792 13.4468 20.1033 13.4808 20.1649C13.6438 20.4593 13.843 20.6944 14.0649 20.8723C14.3049 21.0635 14.5698 21.1931 14.8483 21.2678C15.2038 21.3623 15.5751 21.3623 15.9351 21.2898C16.32 21.2129 16.6913 21.0503 17.0106 20.8262C17.2619 20.6526 17.4838 20.4395 17.6604 20.1978C17.8279 19.9715 17.9525 19.7189 18.0249 19.453C18.034 19.4025 18.0747 19.3585 18.1313 19.3497C18.4642 19.2926 18.7925 19.1586 19.0936 18.9587C19.3947 18.7587 19.6687 18.4951 19.8928 18.1809C20.0989 17.8909 20.2642 17.5569 20.3706 17.1922C20.4702 16.8517 20.5177 16.4825 20.5019 16.0937C20.4974 16.0497 20.5177 16.0058 20.5585 15.9794C20.7532 15.8498 20.9253 15.7136 21.0792 15.5751C21.2355 15.4301 21.3736 15.2807 21.4913 15.1247C21.6725 14.8875 21.806 14.6414 21.8989 14.3887C21.994 14.1273 22.0438 13.8614 22.0528 13.5956C22.0596 13.3385 22.0279 13.0837 21.96 12.8332C21.8921 12.5805 21.7857 12.3366 21.6475 12.1059L21.643 12.1016C21.5525 11.95 21.446 11.8049 21.3283 11.6643C21.2106 11.5237 21.077 11.3919 20.9343 11.2667C20.9004 11.2381 20.8823 11.192 20.8913 11.1458C20.923 10.9942 20.9434 10.8426 20.9502 10.6932C20.957 10.5416 20.9525 10.3922 20.9366 10.245C20.9026 9.93962 20.8189 9.6496 20.6966 9.37936C20.5675 9.09374 20.3955 8.83009 20.194 8.5994C19.9992 8.37529 19.7751 8.17975 19.5351 8.01717C19.2951 7.85459 19.0392 7.72715 18.7789 7.64147L18.7721 7.63927C18.634 7.59313 18.4936 7.56018 18.3555 7.53821H18.3509C18.2151 7.51623 18.0792 7.50745 17.9457 7.50964C17.8845 7.51404 17.8257 7.47449 17.8098 7.41297C17.7872 7.32289 17.7577 7.23501 17.7238 7.14932C17.6875 7.06144 17.6468 6.97575 17.5992 6.89006C17.477 6.67036 17.3162 6.46822 17.1283 6.29465C16.9359 6.11669 16.7162 5.96509 16.4808 5.84865C16.2385 5.73 15.9736 5.64651 15.7019 5.60916C15.4438 5.57401 15.1789 5.5784 14.9185 5.63113C14.6264 5.69924 14.3389 5.81569 14.0762 6.00024ZM17.7781 8.47416C17.794 8.42583 17.8392 8.38848 17.8958 8.38408C17.9909 8.37749 18.0883 8.38189 18.1857 8.39727C18.2853 8.41265 18.3849 8.43681 18.4845 8.46977C18.6725 8.53129 18.8604 8.62576 19.0347 8.74441C19.2068 8.86085 19.3698 9.00366 19.5102 9.16625L19.5125 9.17064C19.6596 9.33982 19.7842 9.52877 19.877 9.73529C19.9653 9.92864 20.0242 10.1352 20.0491 10.3527C20.0649 10.4977 20.0649 10.6493 20.0468 10.8031C20.0309 10.9459 19.997 11.0931 19.9449 11.2403L19.9426 11.2491C19.9109 11.3414 19.9132 11.438 19.9426 11.5237C19.9743 11.6116 20.0332 11.6907 20.117 11.7434L20.1238 11.7478C20.2823 11.8621 20.4226 11.9873 20.5449 12.1191C20.6717 12.2532 20.7804 12.3982 20.8709 12.5476C20.9706 12.7123 21.0475 12.8837 21.0951 13.0595C21.1449 13.2331 21.1675 13.4088 21.1608 13.5824C21.1562 13.7626 21.12 13.9427 21.0543 14.1207C20.9909 14.2899 20.8981 14.4568 20.7759 14.6194L20.7736 14.6216C20.6626 14.7688 20.5223 14.9138 20.357 15.0522C20.1985 15.1841 20.0151 15.3093 19.8045 15.4301L19.7977 15.4345C19.714 15.4807 19.6528 15.551 19.6166 15.6323C19.5804 15.7136 19.5691 15.8036 19.5872 15.8915L19.5894 15.9091C19.6325 16.2453 19.6121 16.566 19.5419 16.8582C19.4649 17.1768 19.3313 17.4624 19.157 17.7063C19.0234 17.8931 18.8694 18.0535 18.7042 18.1809C18.5343 18.3127 18.3509 18.4094 18.163 18.4687H18.1608C18.0928 18.4885 18.0181 18.4511 17.9977 18.3852C17.7419 17.5745 17.3004 17.313 16.5532 16.9395L16.5374 16.9307C16.4332 16.8824 16.32 16.878 16.2181 16.9088C16.1162 16.9395 16.0279 17.0076 15.9758 17.1065L15.9691 17.1197C15.9192 17.2208 15.9147 17.3306 15.9464 17.4295C15.9804 17.5284 16.0528 17.6162 16.157 17.669C16.7819 17.9788 17.2438 18.2139 17.237 18.974C17.2347 19.2003 17.1623 19.42 17.04 19.6178C16.9109 19.8265 16.7253 20.0133 16.5102 20.1649C16.2906 20.3187 16.0438 20.4307 15.7902 20.4856C15.5479 20.5406 15.2989 20.5428 15.0657 20.4812C14.6717 20.3758 14.4158 20.1209 14.2438 19.8111C14.0808 19.5167 13.9902 19.174 13.9245 18.862C13.92 18.851 13.92 18.8378 13.92 18.8268C13.92 18.6686 13.7932 18.5654 13.6279 18.5192C13.5555 18.4973 13.4762 18.4885 13.3992 18.4885C13.32 18.4885 13.243 18.4995 13.1706 18.5192C13.0075 18.5676 12.8808 18.6708 12.8808 18.8268C12.8808 18.8378 12.8785 18.8466 12.8762 18.8576C12.7494 19.3454 12.566 19.7123 12.3509 19.9759C12.0996 20.2857 11.8053 20.4549 11.5019 20.5164C11.28 20.5603 11.0513 20.5494 10.834 20.4944C10.6053 20.4351 10.3879 20.3274 10.1977 20.1868C10.0098 20.044 9.85359 19.8705 9.74491 19.6749C9.64075 19.4882 9.57962 19.2816 9.57962 19.0707C9.57962 18.271 10.0777 18.0029 10.7366 17.6756C10.8408 17.6228 10.9132 17.535 10.9472 17.4361C10.9811 17.335 10.9743 17.223 10.9223 17.1197C10.8679 17.0186 10.7774 16.9483 10.6755 16.9154C10.5736 16.8846 10.4604 16.889 10.3562 16.9373L10.3494 16.9395C9.57283 17.324 9.10868 17.6053 8.83019 18.4423C8.81434 18.4973 8.76 18.539 8.69887 18.5368C8.62189 18.5346 8.54491 18.5258 8.46566 18.5105C8.38868 18.4951 8.3117 18.4753 8.23925 18.4489C8.05585 18.3874 7.87245 18.2973 7.70038 18.1831C7.53057 18.0688 7.37208 17.9326 7.2317 17.7744C7.08679 17.6118 6.96226 17.4295 6.86717 17.2296C6.7766 17.0428 6.71321 16.8429 6.68151 16.6341V16.6298C6.65887 16.476 6.65434 16.3156 6.67245 16.1508C6.6883 15.997 6.72226 15.8366 6.77887 15.6784L6.78113 15.6718C6.81283 15.5817 6.81057 15.4873 6.7834 15.4038L6.78113 15.3994C6.7517 15.3115 6.69283 15.2346 6.61132 15.1797L6.60679 15.1753C6.46189 15.0698 6.33057 14.9578 6.21509 14.8347C6.09736 14.7117 5.99321 14.5799 5.90717 14.4436C5.80302 14.2789 5.72151 14.1031 5.66717 13.9229C5.61509 13.7472 5.58792 13.567 5.59019 13.3825C5.59245 13.1957 5.62642 13.0046 5.69434 12.8178C5.76 12.6398 5.85509 12.4619 5.98642 12.2883C6.09736 12.1411 6.23321 11.9961 6.39623 11.8577C6.55245 11.7237 6.72906 11.5962 6.93283 11.4754C7.00755 11.4314 7.06189 11.3699 7.09811 11.2996L7.10038 11.293C7.1366 11.2205 7.15019 11.1392 7.13887 11.0579C7.1366 11.0491 7.1366 11.0404 7.1366 11.0316V11.0272C7.12528 10.9503 7.11849 10.8734 7.11396 10.7987C7.10943 10.7174 7.10943 10.6361 7.1117 10.557C7.12302 10.2692 7.17962 9.99894 7.27245 9.75507C7.37208 9.49361 7.51245 9.25852 7.68 9.05859C7.81811 8.89381 7.9766 8.75539 8.14189 8.64773C8.30717 8.54008 8.48151 8.46318 8.66038 8.41924C8.7283 8.39946 8.80302 8.43681 8.8234 8.50273C8.96377 8.93336 9.14038 9.2036 9.47774 9.50899L9.49132 9.51998C9.57509 9.59468 9.68377 9.62983 9.79019 9.62544C9.8966 9.62104 10.0008 9.5793 10.0777 9.49801L10.0845 9.48922C10.1615 9.40793 10.1977 9.30247 10.1932 9.1992C10.1887 9.09594 10.1434 8.99268 10.0574 8.91358C9.78566 8.6697 9.72453 8.51811 9.64302 8.27203C9.54792 7.98861 9.56377 7.71177 9.6566 7.4657C9.72 7.29653 9.81962 7.13834 9.94641 6.99992C10.0709 6.8615 10.2226 6.73847 10.3902 6.64399L10.397 6.6396C10.5691 6.54292 10.7547 6.47262 10.9472 6.43746C11.1306 6.40451 11.3185 6.40231 11.5019 6.43966C11.76 6.49239 12.0136 6.62422 12.2377 6.85271C12.4347 7.05265 12.6091 7.32948 12.7472 7.6942L12.7494 7.69859C12.797 7.8414 12.9509 7.92489 13.1321 7.95785C13.2136 7.97323 13.2996 7.97762 13.3834 7.97323H13.3857C13.4717 7.96883 13.5532 7.95345 13.6302 7.92929C13.766 7.88534 13.8725 7.81504 13.8974 7.72496V7.67442C13.8974 7.41956 14.0536 7.14932 14.2687 6.92741C14.5042 6.68574 14.8189 6.49459 15.0838 6.44186C15.2513 6.4089 15.4211 6.40671 15.5864 6.43087C15.7585 6.45724 15.926 6.50997 16.0845 6.58687L16.0981 6.59126C16.2589 6.67036 16.406 6.77142 16.5351 6.89006C16.6619 7.00871 16.7706 7.14273 16.8521 7.28993C16.9811 7.52063 17.04 7.78428 16.9992 8.06331C16.963 8.30719 16.954 8.46098 16.7434 8.70486L16.7411 8.70706C16.6664 8.79274 16.6347 8.9004 16.6438 9.00586C16.6528 9.10693 16.7004 9.20579 16.7842 9.2761L16.7977 9.28709C16.886 9.35739 16.9947 9.38595 17.1011 9.37717C17.2053 9.36838 17.3072 9.32224 17.3796 9.24095L17.3909 9.22557C17.6083 8.9751 17.6785 8.79054 17.7781 8.47416ZM22.7502 19.2267C22.7072 19.1234 22.6823 19.0114 22.6823 18.8927C22.6823 18.7741 22.7072 18.6621 22.7502 18.5588C22.7955 18.4555 22.8589 18.3611 22.9404 18.2842L22.9449 18.2776C22.9902 18.2336 23.0423 18.1919 23.0989 18.1589C23.1283 18.1413 23.16 18.1238 23.194 18.1084V16.722H21.437C21.4392 16.6319 21.4392 16.5419 21.4347 16.4496C21.4302 16.3991 21.4528 16.3485 21.4981 16.32C21.6792 16.1991 21.8445 16.0739 21.994 15.9443H23.5925C23.7034 15.9443 23.803 15.9882 23.8755 16.0585C23.9479 16.1288 23.9932 16.2255 23.9932 16.3331V18.1216C24.0204 18.1348 24.0475 18.1501 24.0747 18.1677C24.1223 18.1985 24.1675 18.2336 24.2083 18.2732L24.2151 18.2798C24.2966 18.3589 24.3645 18.4555 24.4098 18.5632C24.4528 18.6664 24.4777 18.7785 24.4777 18.8971C24.4777 19.0114 24.4551 19.1212 24.4121 19.2245L24.4098 19.2311C24.3645 19.3388 24.2966 19.4332 24.2151 19.5145C24.1336 19.5936 24.034 19.6595 23.923 19.7035C23.8166 19.7452 23.7011 19.7694 23.5789 19.7694C23.4589 19.7694 23.3434 19.7452 23.2347 19.7035C23.1238 19.6595 23.0242 19.5936 22.9426 19.5145C22.8634 19.431 22.7955 19.3344 22.7502 19.2267ZM25.2951 14.7776H22.9064C22.9472 14.6919 22.9834 14.6062 23.0151 14.5183C23.0785 14.347 23.1238 14.1734 23.1509 13.9998H25.2951C25.3109 13.9713 25.3268 13.9427 25.3449 13.9142C25.3789 13.8614 25.4196 13.8131 25.4626 13.7713C25.5464 13.69 25.6438 13.6263 25.7547 13.5824C25.8611 13.5406 25.9766 13.5165 26.0989 13.5165C26.2166 13.5165 26.3298 13.5384 26.4362 13.5802L26.443 13.5824C26.554 13.6263 26.6513 13.6922 26.7351 13.7713C26.8166 13.8504 26.8845 13.9471 26.9298 14.0548C26.9728 14.158 26.9977 14.2701 26.9977 14.3887C26.9977 14.5052 26.9728 14.6172 26.9298 14.7227C26.8845 14.8303 26.8166 14.927 26.7351 15.0061C26.6536 15.0852 26.554 15.1511 26.443 15.1951C26.3366 15.2368 26.2211 15.261 26.0989 15.261C25.9811 15.261 25.8679 15.239 25.7615 15.1972L25.7547 15.1951C25.6438 15.1511 25.5464 15.0852 25.4626 15.0061C25.4196 14.9644 25.3811 14.9182 25.3472 14.8677L25.3426 14.8611C25.3268 14.8347 25.3109 14.8062 25.2951 14.7776ZM26.0558 12.6508H23.0513C22.9743 12.4048 22.8657 12.1653 22.7298 11.9368L22.7253 11.9302C22.714 11.9104 22.7026 11.8928 22.6913 11.8731H25.6574V9.33542C25.6347 9.32224 25.6121 9.30906 25.5894 9.29368C25.5442 9.26292 25.5034 9.22996 25.4649 9.19261C25.3834 9.11352 25.3155 9.01684 25.2702 8.90919C25.2272 8.80592 25.2023 8.69387 25.2023 8.57523C25.2023 8.45878 25.2272 8.34453 25.2702 8.24127C25.3155 8.13361 25.3834 8.03914 25.4649 7.95785C25.5464 7.87875 25.646 7.81284 25.757 7.7689C25.8634 7.72715 25.9789 7.70299 26.1011 7.70299C26.2211 7.70299 26.3366 7.72715 26.4453 7.7689C26.5562 7.81284 26.6558 7.87875 26.7374 7.95785C26.8189 8.03694 26.8868 8.13361 26.9321 8.24127C26.9751 8.34453 27 8.45659 27 8.57523C27 8.68948 26.9774 8.79933 26.9343 8.9026L26.9321 8.90919C26.8868 9.01684 26.8189 9.11132 26.7374 9.19261C26.6875 9.24095 26.6287 9.28489 26.5675 9.32224C26.5336 9.34201 26.4951 9.36179 26.4589 9.37717V12.2597C26.4589 12.3674 26.4136 12.4641 26.3411 12.5344C26.2664 12.6069 26.1668 12.6508 26.0558 12.6508ZM22.9155 10.7745H21.8921C21.9192 10.6295 21.9351 10.4845 21.9419 10.3395C21.9464 10.223 21.9464 10.1088 21.9396 9.99675H22.5147V8.84986C22.483 8.83449 22.4536 8.81911 22.4242 8.79933C22.3698 8.76638 22.32 8.72683 22.2725 8.68069C22.1909 8.60159 22.123 8.50492 22.0777 8.39727C22.0347 8.294 22.0098 8.18195 22.0098 8.06551C22.0098 7.94906 22.0347 7.83701 22.0777 7.73155C22.123 7.62828 22.1864 7.53381 22.2657 7.45472L22.2725 7.44812C22.354 7.36903 22.4536 7.30312 22.5645 7.25917C22.6709 7.21743 22.7864 7.19326 22.9087 7.19326C23.0309 7.19326 23.1464 7.21743 23.2528 7.25917C23.3592 7.30312 23.4566 7.36463 23.5381 7.44373L23.5449 7.44812C23.6264 7.52722 23.6921 7.6195 23.7374 7.72496L23.7396 7.73155C23.7826 7.83481 23.8075 7.94686 23.8075 8.06551C23.8075 8.18195 23.7826 8.2962 23.7396 8.39946C23.6943 8.50273 23.6309 8.5972 23.5517 8.6763L23.5449 8.68289C23.5019 8.72463 23.4543 8.76198 23.4 8.79714C23.3728 8.81471 23.3457 8.83009 23.3162 8.84327V10.3856C23.3162 10.4933 23.2709 10.59 23.1985 10.6603C23.126 10.7306 23.0242 10.7745 22.9155 10.7745ZM7.0483 4.12393C7.15472 4.16568 7.27019 4.18984 7.39245 4.18984C7.51472 4.18984 7.63019 4.16568 7.7366 4.12393C7.84302 4.07999 7.94038 4.01847 8.01962 3.93938L8.02642 3.93498C8.0717 3.89104 8.11472 3.84051 8.14868 3.78558C8.16679 3.75702 8.18491 3.72626 8.20076 3.6933H9.62943V4.89072C9.88075 4.76109 10.1525 4.66661 10.4309 4.61169V3.30442C10.4309 3.19676 10.3857 3.10009 10.3132 3.02978C10.2408 2.95948 10.1411 2.91553 10.0302 2.91553H8.18717C8.17358 2.88917 8.15774 2.8628 8.13962 2.83644C8.10792 2.7903 8.0717 2.74636 8.03094 2.70681L8.02415 2.70022C7.94264 2.62112 7.84302 2.55521 7.73208 2.51127C7.62566 2.46953 7.51019 2.44536 7.38792 2.44536C7.27019 2.44536 7.15472 2.46733 7.05057 2.50907L7.04377 2.51127C6.93283 2.55521 6.83547 2.62112 6.7517 2.70022C6.67019 2.77931 6.60226 2.87599 6.55698 2.98364C6.51396 3.08691 6.48906 3.19896 6.48906 3.3176C6.48906 3.43405 6.51396 3.5461 6.55698 3.65156C6.60226 3.75922 6.67019 3.85589 6.7517 3.93498C6.84 4.01408 6.93736 4.07999 7.0483 4.12393ZM11.6355 1.65441V4.65563C11.9026 4.73033 12.163 4.84897 12.4075 5.02034L12.4347 5.04012C12.4347 5.03353 12.437 5.02693 12.437 5.02034V1.65441C12.4664 1.63903 12.4958 1.62365 12.5253 1.60607C12.5796 1.57311 12.6294 1.53357 12.6725 1.49182C12.754 1.41053 12.8219 1.31606 12.8672 1.2084C12.9102 1.10513 12.9351 0.993083 12.9351 0.874441C12.9351 0.760192 12.9125 0.650338 12.8694 0.547075L12.8672 0.540483C12.8219 0.432826 12.754 0.338351 12.6725 0.257059C12.5909 0.177964 12.4913 0.112051 12.3804 0.0681097C12.274 0.026365 12.1585 0.00219709 12.0362 0.00219709C11.9162 0.00219709 11.8008 0.026365 11.6921 0.0681097C11.5811 0.112051 11.4815 0.177964 11.4 0.257059C11.3185 0.336154 11.2506 0.432826 11.2053 0.540483C11.1623 0.643746 11.1374 0.755798 11.1374 0.874441C11.1374 0.988689 11.16 1.09854 11.203 1.20181L11.2053 1.2084C11.2506 1.31606 11.3185 1.41053 11.4 1.49182C11.443 1.53357 11.4906 1.57092 11.5426 1.60387L11.5472 1.60607C11.5766 1.62365 11.6038 1.63903 11.6355 1.65441ZM13.8249 0.916185V5.30596C13.9336 5.19831 14.0491 5.10383 14.1668 5.02034C14.314 4.91708 14.4679 4.83139 14.6264 4.76548V1.30287H17.2415C17.2551 1.32484 17.2687 1.34681 17.2845 1.36879C17.3162 1.41273 17.3502 1.45227 17.3887 1.48962C17.4702 1.56872 17.5698 1.63463 17.6808 1.67857C17.7872 1.72032 17.9026 1.74449 18.0249 1.74449C18.1449 1.74449 18.2626 1.72032 18.3691 1.67857C18.48 1.63463 18.5796 1.56872 18.6611 1.48962C18.7426 1.41053 18.8106 1.31386 18.8558 1.2062C18.8989 1.10294 18.9238 0.990886 18.9238 0.872243C18.9238 0.755798 18.8989 0.643746 18.8558 0.538286C18.8106 0.430629 18.7426 0.333957 18.6611 0.254862C18.5751 0.175767 18.4755 0.109854 18.3645 0.0659126C18.2581 0.024168 18.1426 0 18.0226 0C17.9049 0 17.7917 0.0219709 17.6853 0.0637155L17.6785 0.0659126C17.5675 0.109854 17.4702 0.175767 17.3864 0.254862C17.3366 0.303198 17.2913 0.360322 17.2528 0.419644C17.2325 0.4526 17.2121 0.48995 17.1962 0.525104H14.2257C14.1147 0.525104 14.0151 0.569045 13.9426 0.639352C13.8702 0.711856 13.8249 0.808528 13.8249 0.916185ZM15.7585 3.96354V4.56555C15.84 4.56994 15.9238 4.57653 16.0053 4.58971C16.1955 4.61608 16.3811 4.66222 16.56 4.72593V4.35463H17.7419C17.7577 4.38539 17.7736 4.41395 17.794 4.44251C17.8279 4.49524 17.8687 4.54358 17.9162 4.58971C17.9977 4.66881 18.0974 4.73472 18.2083 4.77866C18.3147 4.82041 18.4302 4.84458 18.5502 4.84458C18.6702 4.84458 18.7857 4.82041 18.8943 4.77866C19.0008 4.73472 19.0981 4.6732 19.1796 4.59631L19.1864 4.58971C19.2679 4.51062 19.3358 4.41395 19.3811 4.30629C19.4242 4.20303 19.4491 4.09098 19.4491 3.97233C19.4491 3.85369 19.4242 3.74164 19.3811 3.63838C19.3358 3.53511 19.2725 3.44064 19.1909 3.36154L19.1864 3.35495C19.1049 3.27586 19.0098 3.21214 18.9011 3.1682L18.8943 3.166C18.7879 3.12426 18.6725 3.10009 18.5502 3.10009C18.4302 3.10009 18.3125 3.12426 18.206 3.166C18.0996 3.20994 18.0023 3.27146 17.9208 3.34836L17.914 3.35495C17.8709 3.3967 17.8325 3.44284 17.7962 3.49557C17.7781 3.52193 17.7623 3.5483 17.7487 3.57686H16.1592C16.0483 3.57686 15.9487 3.6208 15.8762 3.69111C15.8038 3.75922 15.7585 3.85589 15.7585 3.96354ZM4.24981 7.73375C4.29283 7.83701 4.31774 7.94906 4.31774 8.0677C4.31774 8.18635 4.29283 8.2984 4.24981 8.40166C4.20453 8.50492 4.14113 8.5994 4.05962 8.6763L4.05509 8.68289C4.00981 8.72683 3.95774 8.76857 3.90113 8.80153C3.8717 8.81911 3.84 8.83668 3.80604 8.85206V10.2384H5.28906V10.3065C5.28906 10.3593 5.29132 10.4142 5.29358 10.4713C5.29811 10.5197 5.27547 10.568 5.23245 10.5987C5.03774 10.7328 4.8634 10.8734 4.70491 11.0162H3.40981C3.29887 11.0162 3.19925 10.9723 3.12679 10.9019C3.05434 10.8316 3.00906 10.735 3.00906 10.6273V8.83888C2.98189 8.8257 2.95472 8.81032 2.92755 8.79274C2.88 8.76198 2.83472 8.72683 2.79396 8.68728L2.78717 8.68069C2.70566 8.60159 2.63774 8.50492 2.59245 8.39727C2.54943 8.294 2.52453 8.18195 2.52453 8.06331C2.52453 7.94906 2.54717 7.83921 2.59019 7.73594L2.59245 7.72935C2.63774 7.62169 2.70566 7.52722 2.78717 7.44593C2.86868 7.36683 2.9683 7.30092 3.07925 7.25698C3.18566 7.21523 3.30113 7.19106 3.4234 7.19106C3.5434 7.19106 3.65887 7.21523 3.76755 7.25698C3.87849 7.30092 3.97811 7.36683 4.05962 7.44593C4.1366 7.52942 4.20453 7.62609 4.24981 7.73375ZM1.70491 12.1828H3.83321C3.79698 12.2619 3.76528 12.3432 3.73585 12.4223C3.67245 12.6003 3.62717 12.7783 3.6 12.9584H1.70491C1.68906 12.987 1.67321 13.0155 1.65509 13.0441C1.62113 13.0968 1.58038 13.1452 1.53736 13.1869C1.45358 13.2682 1.35623 13.3319 1.24528 13.3759C1.13887 13.4176 1.0234 13.4418 0.901132 13.4418C0.783396 13.4418 0.670189 13.4198 0.563774 13.3781L0.556981 13.3759C0.446038 13.3319 0.348679 13.266 0.264906 13.1869C0.183396 13.1078 0.115472 13.0111 0.0701887 12.9035C0.0271698 12.8002 0.00226415 12.6882 0.00226415 12.5695C0.00226415 12.4531 0.0271698 12.341 0.0701887 12.2356C0.115472 12.1279 0.183396 12.0312 0.264906 11.9522C0.346415 11.8731 0.446038 11.8071 0.556981 11.7632C0.663396 11.7215 0.778868 11.6973 0.901132 11.6973C1.01887 11.6973 1.13208 11.7193 1.23849 11.761L1.24528 11.7632C1.35623 11.8071 1.45358 11.8731 1.53736 11.9522C1.58038 11.9939 1.61887 12.04 1.65283 12.0906L1.65736 12.0972C1.67321 12.1257 1.68906 12.1543 1.70491 12.1828ZM0.944151 14.3096H3.71321C3.79925 14.5755 3.92377 14.8325 4.08226 15.0764V15.0786L4.08679 15.0874H1.34264V17.625C1.36528 17.6382 1.38792 17.6514 1.41057 17.6668C1.45585 17.6975 1.4966 17.7305 1.53509 17.7678C1.6166 17.8469 1.68453 17.9436 1.72981 18.0513C1.77283 18.1545 1.79774 18.2666 1.79774 18.3852C1.79774 18.5017 1.77283 18.6159 1.72981 18.7192C1.68453 18.8268 1.6166 18.9213 1.53509 19.0026C1.45359 19.0817 1.35396 19.1476 1.24302 19.1916C1.1366 19.2333 1.02113 19.2575 0.898868 19.2575C0.778868 19.2575 0.663396 19.2333 0.554717 19.1916C0.443774 19.1476 0.344151 19.0817 0.262642 19.0026C0.181132 18.9169 0.113208 18.8202 0.0679245 18.7148C0.0249057 18.6115 0 18.4995 0 18.3808C0 18.2666 0.0226415 18.1567 0.0656604 18.0535L0.0679245 18.0469C0.113208 17.9392 0.181132 17.8447 0.262642 17.7634C0.312453 17.7151 0.371321 17.6712 0.432453 17.6338C0.466415 17.614 0.504906 17.5943 0.541132 17.5789V14.6963C0.541132 14.5887 0.586415 14.492 0.658868 14.4217C0.733585 14.3536 0.833208 14.3096 0.944151 14.3096ZM4.08453 16.1859H4.8317C4.80679 16.3309 4.79321 16.4738 4.78868 16.6144C4.78415 16.733 4.78642 16.8495 4.79547 16.9637H4.48528V18.1106C4.51698 18.126 4.54641 18.1413 4.57585 18.1611C4.63019 18.1941 4.68 18.2336 4.72755 18.2798C4.80906 18.3589 4.87698 18.4555 4.92226 18.5632C4.96528 18.6664 4.99019 18.7785 4.99019 18.8971C4.99019 19.0158 4.96528 19.1256 4.92226 19.2311C4.87698 19.3344 4.81358 19.4288 4.73434 19.5079L4.72755 19.5145C4.64604 19.5936 4.54642 19.6595 4.43547 19.7035C4.32906 19.7452 4.21358 19.7694 4.09132 19.7694C3.96906 19.7694 3.85358 19.7452 3.74717 19.7035C3.64075 19.6595 3.5434 19.598 3.46189 19.5189L3.45509 19.5145C3.37358 19.4354 3.30792 19.3432 3.26264 19.2377L3.26038 19.2311C3.21736 19.1278 3.19245 19.0158 3.19245 18.8971C3.19245 18.7807 3.21736 18.6664 3.26038 18.5632C3.30566 18.4599 3.36906 18.3654 3.4483 18.2864L3.45509 18.2798C3.49811 18.238 3.54566 18.2007 3.6 18.1655C3.62717 18.1479 3.65434 18.1326 3.68377 18.1194V16.577C3.68377 16.4694 3.72906 16.3727 3.80151 16.3024C3.87396 16.2277 3.97359 16.1859 4.08453 16.1859ZM14.9502 25.3434V22.2697C14.6672 22.184 14.4 22.0456 14.1555 21.85L14.1509 21.8456V25.3456C14.1215 25.361 14.0921 25.3764 14.0626 25.3939C14.0083 25.4269 13.9585 25.4664 13.9155 25.5082C13.834 25.5895 13.766 25.6839 13.7208 25.7916C13.6777 25.8949 13.6528 26.0069 13.6528 26.1256C13.6528 26.2398 13.6755 26.3497 13.7185 26.4529L13.7208 26.4595C13.766 26.5672 13.834 26.6616 13.9155 26.7429C13.997 26.822 14.0966 26.8879 14.2075 26.9319C14.314 26.9736 14.4294 26.9978 14.5517 26.9978C14.6717 26.9978 14.7872 26.9736 14.8958 26.9319C15.0068 26.8879 15.1064 26.822 15.1879 26.7429C15.2694 26.6638 15.3374 26.5672 15.3826 26.4595C15.4257 26.3563 15.4506 26.2442 15.4506 26.1256C15.4506 26.0113 15.4279 25.9015 15.3849 25.7982L15.3826 25.7916C15.3374 25.6839 15.2694 25.5895 15.1879 25.5082C15.1449 25.4664 15.0974 25.4291 15.0453 25.3961L15.0385 25.3917C15.0091 25.3742 14.9796 25.3588 14.9502 25.3434ZM12.7585 26.0816V21.6523C12.6634 21.7468 12.5638 21.8303 12.4596 21.9072C12.2989 22.0258 12.1313 22.1203 11.957 22.195V25.6971H9.34189C9.3283 25.6752 9.31472 25.6532 9.29887 25.6312C9.26717 25.5873 9.23321 25.5477 9.19472 25.5104C9.11321 25.4313 9.01359 25.3654 8.90264 25.3214C8.79623 25.2797 8.68075 25.2555 8.55849 25.2555C8.43849 25.2555 8.32076 25.2797 8.21434 25.3214C8.1034 25.3654 8.00604 25.4313 7.92226 25.5104C7.84075 25.5895 7.77283 25.6861 7.72755 25.7938C7.68453 25.8971 7.65962 26.0091 7.65962 26.1278C7.65962 26.2442 7.68453 26.3563 7.72755 26.4617C7.77283 26.5694 7.84075 26.666 7.92226 26.7451C8.00377 26.8242 8.1034 26.8901 8.21434 26.9341C8.32076 26.9758 8.43623 27 8.55849 27C8.67623 27 8.78943 26.978 8.89585 26.9363L8.90264 26.9341C9.01359 26.8901 9.11094 26.8242 9.19472 26.7451C9.24453 26.6968 9.28981 26.6397 9.3283 26.5804C9.34868 26.5474 9.36906 26.51 9.38491 26.4749H12.3555C12.4664 26.4749 12.566 26.431 12.6385 26.3606C12.7132 26.2859 12.7585 26.1893 12.7585 26.0816ZM10.8249 23.0343V22.3949C10.6483 22.3861 10.4717 22.3598 10.2996 22.318C10.2068 22.296 10.114 22.2675 10.0234 22.2367V22.6476H8.84151C8.82566 22.6168 8.80981 22.5882 8.78943 22.5597C8.75547 22.507 8.71472 22.4586 8.66717 22.4125C8.58566 22.3334 8.48604 22.2675 8.37509 22.2235C8.26868 22.1818 8.15321 22.1576 8.03321 22.1576C7.91321 22.1576 7.79774 22.1818 7.68906 22.2235C7.58264 22.2675 7.48528 22.329 7.40377 22.4059L7.39698 22.4103C7.31547 22.4894 7.24755 22.5861 7.20226 22.6937C7.15925 22.797 7.13434 22.909 7.13434 23.0277C7.13434 23.1463 7.15925 23.2584 7.20226 23.3616C7.24755 23.4649 7.31094 23.5594 7.39245 23.6385L7.39698 23.645C7.47849 23.7241 7.57359 23.7879 7.68226 23.8318L7.68906 23.834C7.79547 23.8757 7.91094 23.8999 8.03321 23.8999C8.15321 23.8999 8.26868 23.8757 8.37736 23.834C8.48377 23.7901 8.58113 23.7285 8.66264 23.6516L8.66943 23.645C8.71245 23.6033 8.75094 23.5572 8.78717 23.5044C8.80528 23.4781 8.82113 23.4517 8.83472 23.4231H10.4242C10.5351 23.4231 10.6347 23.3792 10.7072 23.3089C10.7796 23.2386 10.8249 23.1419 10.8249 23.0343Z" fill="white"/>
</g>
<defs>
<clipPath id="clip0_26_57">
<rect width="27" height="27" fill="white"/>
</clipPath>
</defs>
</svg>
