<svg width="27" height="15" viewBox="0 0 27 15" fill="none" xmlns="http://www.w3.org/2000/svg">
<g id="car logo" clip-path="url(#clip0_26_60)">
<path id="Vector" fill-rule="evenodd" clip-rule="evenodd" d="M24.1026 5.6729L20.1832 5.28387L17.3497 1.17871C16.8329 0.429677 15.9852 0 15.0271 0H5.72806C4.71774 0 3.84677 0.537097 3.45484 1.40226L1.6229 5.43484C1.52129 5.53064 1.41968 5.62355 1.31806 5.71355C0.699677 6.25935 0 6.87774 0 8.1V11.5142C0 12.2342 0.586452 12.8206 1.30645 12.8206H2.6071C3.01355 13.8861 4.04419 14.6439 5.25194 14.6439C6.45968 14.6439 7.48742 13.8832 7.89677 12.8206H19.1032C19.5097 13.8861 20.5403 14.6439 21.7481 14.6439C22.9558 14.6439 23.9835 13.8832 24.3929 12.8206H25.6935C26.4135 12.8206 27 12.2342 27 11.5142V8.69226C27 6.89516 25.5077 5.68742 24.1026 5.6729ZM26.129 9.68226H25.5977C25.4323 9.68226 25.2958 9.54581 25.2958 9.38032V9.07839H26.129V9.68226ZM16.6326 1.67226L19.109 5.26065H10.7245V0.870968H15.0242C15.7065 0.870968 16.2755 1.15548 16.6326 1.67226ZM4.24742 1.75935C4.4971 1.21064 5.06323 0.868064 5.72806 0.868064H9.85355V5.26065H2.65935L4.24742 1.75935ZM5.25194 13.7729C4.16903 13.7729 3.28935 12.8932 3.28935 11.8103C3.28935 10.7274 4.16903 9.84774 5.25194 9.84774C6.33484 9.84774 7.21452 10.7274 7.21452 11.8103C7.21452 12.8932 6.33484 13.7729 5.25194 13.7729ZM21.7481 13.7729C20.6652 13.7729 19.7855 12.8932 19.7855 11.8103C19.7855 10.7274 20.6652 9.84774 21.7481 9.84774C22.831 9.84774 23.7106 10.7274 23.7106 11.8103C23.7106 12.8932 22.831 13.7729 21.7481 13.7729ZM25.6935 11.9497H24.5729C24.5758 11.9032 24.5787 11.8568 24.5787 11.8103C24.5787 10.2484 23.3071 8.97677 21.7452 8.97677C20.1832 8.97677 18.9116 10.2484 18.9116 11.8103C18.9116 11.8568 18.9174 11.9032 18.9174 11.9497H8.07677C8.07968 11.9032 8.08258 11.8568 8.08258 11.8103C8.08258 10.2484 6.81097 8.97677 5.24903 8.97677C3.6871 8.97677 2.41548 10.2484 2.41548 11.8103C2.41548 11.8568 2.42129 11.9032 2.42129 11.9497H1.30645C1.06548 11.9497 0.870968 11.7552 0.870968 11.5142V8.1C0.870968 7.26968 1.32097 6.86903 1.8929 6.36387C1.98 6.28548 2.0671 6.21 2.15419 6.12871H19.9161L24.0358 6.53806C24.0503 6.53806 24.0648 6.54097 24.0794 6.54097C24.9387 6.54097 25.8503 7.19129 26.0739 8.20452H24.8574C24.6165 8.20452 24.4219 8.39903 24.4219 8.64V9.37742C24.4219 10.0248 24.9474 10.5503 25.5948 10.5503H26.1261V11.5113C26.129 11.7552 25.9345 11.9497 25.6935 11.9497ZM13.9587 7.47871C13.9587 7.71968 13.7642 7.91419 13.5232 7.91419H11.5665C11.3255 7.91419 11.131 7.71968 11.131 7.47871C11.131 7.23774 11.3255 7.04323 11.5665 7.04323H13.5232C13.7642 7.04323 13.9587 7.23774 13.9587 7.47871ZM6.18097 11.8103C6.18097 12.3213 5.7629 12.7394 5.25194 12.7394C4.74097 12.7394 4.3229 12.3213 4.3229 11.8103C4.3229 11.2994 4.74097 10.8813 5.25194 10.8813C5.7629 10.8813 6.18097 11.2994 6.18097 11.8103ZM22.6771 11.8103C22.6771 12.3213 22.259 12.7394 21.7481 12.7394C21.2371 12.7394 20.819 12.3213 20.819 11.8103C20.819 11.2994 21.2371 10.8813 21.7481 10.8813C22.259 10.8813 22.6771 11.2994 22.6771 11.8103Z" fill="white"/>
</g>
<defs>
<clipPath id="clip0_26_60">
<rect width="27" height="15" fill="white"/>
</clipPath>
</defs>
</svg>
