<svg width="21" height="27" viewBox="0 0 21 27" fill="none" xmlns="http://www.w3.org/2000/svg">
<g id="rules logo" clip-path="url(#clip0_26_59)">
<path id="Vector" d="M19.3661 2.56138H16.1812C16.1308 2.37462 16.0157 2.21081 15.8557 2.09793C15.6956 1.98505 15.5006 1.9301 15.3038 1.94246H14.2994V1.75812C14.2994 0.78866 13.3431 0 12.1681 0H8.83194C7.65694 0 6.70061 0.78866 6.70061 1.75812V1.94246H5.69622C5.49944 1.9301 5.30438 1.98505 5.14435 2.09793C4.98432 2.21081 4.86925 2.37462 4.8188 2.56138H1.63394C1.20153 2.56105 0.786645 2.7288 0.480321 3.02782C0.173998 3.32684 0.00125628 3.73271 0 4.15637V25.4097C0.00189524 25.8328 0.174995 26.2378 0.481318 26.5359C0.787641 26.834 1.20217 27.0009 1.63394 27H3.6139C3.74441 27 3.86958 26.9492 3.96187 26.8588C4.05415 26.7684 4.106 26.6457 4.106 26.5179C4.106 26.39 4.05415 26.2673 3.96187 26.1769C3.86958 26.0865 3.74441 26.0357 3.6139 26.0357H1.63394C1.46313 26.0369 1.29882 25.9716 1.17703 25.8543C1.05523 25.7369 0.985895 25.5771 0.98421 25.4097V4.15639C0.985245 3.98841 1.05422 3.82768 1.17602 3.70945C1.29781 3.59122 1.46249 3.52513 1.63394 3.52567H4.80379V4.5215H2.44851C2.38388 4.52148 2.31988 4.53394 2.26017 4.55817C2.20045 4.58239 2.1462 4.61791 2.1005 4.66268C2.0548 4.70746 2.01855 4.76061 1.99383 4.81912C1.9691 4.87762 1.95639 4.94032 1.9564 5.00364V7.27852C1.9564 7.40639 2.00825 7.52903 2.10054 7.61945C2.19282 7.70987 2.31799 7.76066 2.44851 7.76066C2.57902 7.76066 2.70419 7.70987 2.79648 7.61945C2.88877 7.52903 2.94061 7.40639 2.94061 7.27852V5.48579H4.80379V5.89095C4.81185 5.99756 4.8414 6.10156 4.89072 6.19693C4.94003 6.2923 5.00815 6.37715 5.09112 6.44658C5.1741 6.51601 5.27029 6.56865 5.37415 6.60145C5.47801 6.63426 5.58747 6.64658 5.69621 6.6377H15.3038C15.4125 6.64658 15.522 6.63426 15.6258 6.60145C15.7297 6.56865 15.8259 6.51601 15.9089 6.44658C15.9919 6.37715 16.06 6.2923 16.1093 6.19693C16.1586 6.10156 16.1881 5.99756 16.1962 5.89095V5.48579H18.0594V24.0834H2.94061V9.4112C2.94061 9.28333 2.88877 9.16069 2.79648 9.07027C2.70419 8.97986 2.57902 8.92906 2.44851 8.92906C2.31799 8.92906 2.19282 8.97986 2.10054 9.07027C2.00825 9.16069 1.9564 9.28333 1.9564 9.4112V24.5655C1.95639 24.6288 1.9691 24.6915 1.99383 24.75C2.01855 24.8085 2.0548 24.8617 2.1005 24.9065C2.1462 24.9512 2.20045 24.9868 2.26017 25.011C2.31988 25.0352 2.38388 25.0477 2.44851 25.0476H18.5515C18.6161 25.0477 18.6801 25.0352 18.7398 25.011C18.7995 24.9868 18.8538 24.9512 18.8995 24.9065C18.9452 24.8617 18.9814 24.8085 19.0062 24.75C19.0309 24.6915 19.0436 24.6288 19.0436 24.5655V5.00364C19.0436 4.94032 19.0309 4.87762 19.0062 4.81912C18.9814 4.76061 18.9452 4.70746 18.8995 4.66268C18.8538 4.61791 18.7995 4.58239 18.7398 4.55817C18.6801 4.53394 18.6161 4.52148 18.5515 4.5215H16.1962V3.52567H19.3661C19.5375 3.52513 19.7022 3.59122 19.824 3.70944C19.9458 3.82767 20.0147 3.98839 20.0158 4.15637V25.4097C20.0141 25.5771 19.9448 25.7369 19.823 25.8543C19.7012 25.9716 19.5369 26.0369 19.3661 26.0357H5.9091C5.77859 26.0357 5.65342 26.0865 5.56113 26.1769C5.46884 26.2673 5.417 26.39 5.417 26.5179C5.417 26.6457 5.46884 26.7684 5.56113 26.8588C5.65342 26.9492 5.77859 27 5.9091 27H19.3661C19.7978 27.0009 20.2124 26.834 20.5187 26.5359C20.825 26.2378 20.9981 25.8328 21 25.4097V4.15639C20.9987 3.73273 20.826 3.32686 20.5197 3.02783C20.2134 2.72881 19.7985 2.56105 19.3661 2.56138ZM15.212 5.67342L5.788 5.67083V2.90675H7.18676L7.19271 2.90792C7.25734 2.90794 7.32134 2.89548 7.38105 2.87126C7.44076 2.84703 7.49502 2.81152 7.54072 2.76674C7.58642 2.72197 7.62266 2.66881 7.64739 2.61031C7.67211 2.5518 7.68483 2.4891 7.68481 2.42578V1.75812C7.68481 1.32778 8.21008 0.964286 8.83194 0.964286H12.1681C12.7899 0.964286 13.3152 1.32778 13.3152 1.75812V2.42578C13.3151 2.4891 13.3279 2.5518 13.3526 2.61031C13.3773 2.66881 13.4136 2.72197 13.4593 2.76674C13.505 2.81152 13.5592 2.84703 13.6189 2.87126C13.6786 2.89548 13.7426 2.90794 13.8073 2.90792L13.8132 2.90675L15.212 2.9091L15.212 5.67342Z" fill="white"/>
<path id="Vector_2" d="M4.59474 10.125H14.4368C14.5674 10.125 14.6925 10.0742 14.7848 9.98381C14.8771 9.89339 14.9289 9.77075 14.9289 9.64288C14.9289 9.51501 14.8771 9.39237 14.7848 9.30195C14.6925 9.21153 14.5674 9.16074 14.4368 9.16074H4.59474C4.46422 9.16074 4.33905 9.21153 4.24676 9.30195C4.15448 9.39237 4.10263 9.51501 4.10263 9.64288C4.10263 9.77075 4.15448 9.89339 4.24676 9.98381C4.33905 10.0742 4.46422 10.125 4.59474 10.125Z" fill="white"/>
<path id="Vector_3" d="M4.59474 17.8393C4.46422 17.8393 4.33905 17.8901 4.24676 17.9805C4.15448 18.0709 4.10263 18.1936 4.10263 18.3214C4.10263 18.4493 4.15448 18.5719 4.24676 18.6624C4.33905 18.7528 4.46422 18.8036 4.59474 18.8036H7.72235C8.50806 19.4274 9.48867 19.7679 10.5 19.7679C11.5113 19.7679 12.4919 19.4274 13.2776 18.8036H16.0804C16.2109 18.8036 16.3361 18.7528 16.4284 18.6624C16.5206 18.5719 16.5725 18.4493 16.5725 18.3214C16.5725 18.1936 16.5206 18.0709 16.4284 17.9805C16.3361 17.8901 16.2109 17.8393 16.0804 17.8393H14.1801C14.5751 17.2626 14.822 16.601 14.8999 15.9107H15.3326C15.4631 15.9107 15.5883 15.8599 15.6806 15.7695C15.7729 15.6791 15.8247 15.5565 15.8247 15.4286C15.8247 15.3007 15.7729 15.1781 15.6806 15.0877C15.5883 14.9972 15.4631 14.9464 15.3326 14.9464H14.8999C14.822 14.2562 14.5751 13.5945 14.1801 13.0179H16.7743C16.9048 13.0179 17.03 12.9671 17.1223 12.8766C17.2146 12.7862 17.2664 12.6636 17.2664 12.5357C17.2664 12.4079 17.2146 12.2852 17.1223 12.1948C17.03 12.1044 16.9048 12.0536 16.7743 12.0536H13.2776C12.4919 11.4297 11.5113 11.0893 10.5 11.0893C9.48867 11.0893 8.50806 11.4297 7.72235 12.0536H4.59474C4.46422 12.0536 4.33905 12.1044 4.24676 12.1948C4.15448 12.2852 4.10263 12.4079 4.10263 12.5357C4.10263 12.6636 4.15448 12.7862 4.24676 12.8766C4.33905 12.9671 4.46422 13.0179 4.59474 13.0179H6.81993C6.42494 13.5945 6.17798 14.2562 6.10008 14.9464H4.59474C4.46422 14.9464 4.33905 14.9972 4.24676 15.0877C4.15448 15.1781 4.10263 15.3007 4.10263 15.4286C4.10263 15.5565 4.15448 15.6791 4.24676 15.7695C4.33905 15.8599 4.46422 15.9107 4.59474 15.9107H6.10008C6.17798 16.601 6.42493 17.2626 6.81992 17.8393H4.59474ZM13.9447 15.4286C13.9447 16.0961 13.7427 16.7486 13.3642 17.3036C12.9857 17.8586 12.4477 18.2912 11.8182 18.5467C11.1888 18.8021 10.4962 18.869 9.82796 18.7387C9.15975 18.6085 8.54596 18.2871 8.0642 17.8151C7.58245 17.3431 7.25437 16.7417 7.12145 16.087C6.98853 15.4323 7.05675 14.7537 7.31748 14.137C7.5782 13.5203 8.01972 12.9932 8.5862 12.6224C9.15269 12.2515 9.81869 12.0536 10.5 12.0536C11.4133 12.0546 12.2888 12.4105 12.9346 13.0432C13.5804 13.676 13.9437 14.5338 13.9447 15.4286Z" fill="white"/>
<path id="Vector_4" d="M4.59474 21.6964H14.6526C14.7831 21.6964 14.9083 21.6456 15.0006 21.5552C15.0929 21.4648 15.1447 21.3422 15.1447 21.2143C15.1447 21.0864 15.0929 20.9638 15.0006 20.8734C14.9083 20.7829 14.7831 20.7321 14.6526 20.7321H4.59474C4.46422 20.7321 4.33905 20.7829 4.24676 20.8734C4.15448 20.9638 4.10263 21.0864 4.10263 21.2143C4.10263 21.3422 4.15448 21.4648 4.24676 21.5552C4.33905 21.6456 4.46422 21.6964 4.59474 21.6964Z" fill="white"/>
<path id="Vector_5" d="M9.68159 17.0852C9.77156 17.1634 9.88765 17.2065 10.0079 17.2065C10.018 17.2065 10.0281 17.2062 10.0377 17.2055C10.1023 17.2017 10.1655 17.1855 10.2236 17.1577C10.2817 17.1299 10.3337 17.0911 10.3765 17.0435L12.714 14.452C12.7572 14.4047 12.7904 14.3494 12.8117 14.2894C12.8331 14.2294 12.8421 14.1659 12.8383 14.1025C12.8345 14.0391 12.8179 13.9771 12.7896 13.92C12.7612 13.8628 12.7216 13.8118 12.673 13.7697C12.6244 13.7276 12.5679 13.6954 12.5065 13.6748C12.4452 13.6542 12.3803 13.6458 12.3156 13.6498C12.2509 13.6539 12.1877 13.6705 12.1295 13.6986C12.0714 13.7267 12.0195 13.7657 11.9768 13.8136L9.96561 16.0433L8.98091 15.1882C8.93253 15.1462 8.87619 15.114 8.8151 15.0933C8.75401 15.0727 8.68937 15.064 8.62486 15.0679C8.56036 15.0717 8.49725 15.0879 8.43915 15.1156C8.38105 15.1434 8.32909 15.182 8.28624 15.2294C8.24338 15.2768 8.21048 15.332 8.1894 15.3919C8.16832 15.4517 8.15949 15.515 8.16339 15.5782C8.16729 15.6414 8.18387 15.7033 8.21216 15.7602C8.24045 15.8171 8.27991 15.868 8.32829 15.91L9.68159 17.0852Z" fill="white"/>
</g>
<defs>
<clipPath id="clip0_26_59">
<rect width="21" height="27" fill="white"/>
</clipPath>
</defs>
</svg>
